:SAMPLES-PER-SECOND 30
:FULLY-SPECIFIED
:DEGREES
428
root  5.36397 42.3436 -44.845 109.516 -77.5838 -111.017
RightUpLeg  -5.21178 2.6291 2.99337
RightLeg  12.746 -0.191555 -0.829066
RightFoot  21.0414 -4.18745 14.8606
RightToes  1.16414e-010 0 -3.6325e-017
Spine  19.2008 3.71952 -4.22609
Spine1  -2.43826 1.05829 12.9776
HEad  -22.2099 30.4386 12.5524
LeftShoulder1  3.37081 -12.6101 -14.0149
LeftArm  38.2635 56.2078 -46.5635
LeftForeArm  -9.50167 -24.8164 -5.78183
LeftHand  -0.253751 13.567 -1.8073
RightShoulder  0.0756702 -9.43148 -11.2364
RightArm  -59.2246 5.30092 29.9948
RightForeArm  -85.8299 73.3613 154.845
RightHand  -67.9473 47.3793 -111.454
LeftUpLeg  -27.4056 14.0083 -0.787784
LeftLeg  88.1885 -0.312206 10.0238
LeftFoot  -15.1366 -0.31411 -12.2442
LeftToes  7.09373e-011 9.9627e-011 8.96859e-012
429
root  5.87866 42.489 -44.3459 120.396 -76.1051 -123.236
RightUpLeg  -4.65985 6.83458 1.60756
RightLeg  16.4495 0.749919 0.0328147
RightFoot  19.5345 -4.29585 15.9748
RightToes  1.16414e-010 0 -3.6325e-017
Spine  21.7833 3.39953 -4.36571
Spine1  -3.42478 1.21654 9.10941
HEad  -22.4659 32.9358 21.9738
LeftShoulder1  3.05187 -10.5369 -14.8666
LeftArm  22.751 51.3312 -56.8219
LeftForeArm  -18.626 -25.5112 -6.36531
LeftHand  0.20161 8.58576 8.16106
RightShoulder  0.106975 -6.13509 -13.8069
RightArm  -37.5018 28.4598 34.8845
RightForeArm  -112.994 78.1783 142.018
RightHand  -40.2149 82.344 -39.739
LeftUpLeg  -26.6668 10.2216 1.05653
LeftLeg  80.9301 1.03869 10.5346
LeftFoot  -16.5033 -0.395456 -10.9223
LeftToes  7.09373e-011 9.9627e-011 8.96859e-012
430
root  6.37085 42.2607 -44.039 123.362 -76.267 -126.691
RightUpLeg  -4.20592 8.11195 -0.00602638
RightLeg  19.8618 4.85605 1.74334
RightFoot  17.7439 -4.39471 17.3012
RightToes  1.16414e-010 0 -3.6325e-017
Spine  24.2632 2.68178 -3.48719
Spine1  -5.80812 1.67027 1.9917
HEad  -22.3204 29.4272 26.5459
LeftShoulder1  2.93141 -10.0814 -14.71
LeftArm  10.8462 42.7507 -59.6132
LeftForeArm  -26.2736 -28.2741 -7.36046
LeftHand  -0.0269365 5.16779 15.2484
RightShoulder  -0.00385048 -3.07445 -12.6347
RightArm  -9.67147 38.0002 44.8388
RightForeArm  152.723 82.005 77.5977
RightHand  39.6023 48.3774 53.3158
LeftUpLeg  -26.4678 3.39321 3.29192
LeftLeg  72.0201 3.1811 11.8432
LeftFoot  -17.5213 -0.449313 -10.2348
LeftToes  7.09373e-011 9.9627e-011 8.96859e-012
431
root  6.87215 41.7516 -43.9683 120.547 -78.2635 -123.939
RightUpLeg  -3.18541 8.68041 -1.73598
RightLeg  22.3546 6.52164 2.7207
RightFoot  16.6059 -4.36736 17.8781
RightToes  1.16414e-010 0 -3.6325e-017
Spine  25.7308 2.3192 -2.84376
Spine1  -6.19499 2.36361 -5.46616
HEad  -22.7934 18.5969 20.3164
LeftShoulder1  3.50346 -11.0791 -17.3574
LeftArm  4.97885 28.2734 -55.2387
LeftForeArm  -31.0524 -31.3144 -8.33813
LeftHand  -0.254735 3.99461 20.7412
RightShoulder  0.014121 -1.20804 -8.91
RightArm  13.3197 35.6436 56.9806
RightForeArm  53.4365 70.611 25.96
RightHand  -2.71345 -10.9264 -29.7629
LeftUpLeg  -26.7097 -3.27616 5.9707
LeftLeg  61.7302 6.93662 14.2597
LeftFoot  -18.3685 -0.49504 -9.83616
LeftToes  7.09373e-011 9.9627e-011 8.96859e-012
432
root  7.37097 41.0242 -44.1273 98.7066 -81.5181 -101.311
RightUpLeg  -1.58677 8.17539 -3.46131
RightLeg  23.3506 4.09345 1.73113
RightFoot  14.0511 -4.2835 19.3153
RightToes  1.16414e-010 0 -3.6325e-017
Spine  26.1313 1.9447 -3.62133
Spine1  -3.94719 2.67675 -10.6869
HEad  -20.7459 2.74982 8.6407
LeftShoulder1  4.26262 -11.5661 -21.9789
LeftArm  4.6045 6.39592 -49.3928
LeftForeArm  -33.4432 -32.9477 -8.88141
LeftHand  -0.624884 2.26194 23.3362
RightShoulder  0.24575 0.281871 -2.59812
RightArm  25.4019 26.298 63.7613
RightForeArm  53.0543 57.2672 12.4583
RightHand  0.0383224 -5.93592 -15.714
LeftUpLeg  -28.2311 -8.16696 8.58736
LeftLeg  49.5712 12.1128 15.2543
LeftFoot  -18.7521 -0.503678 -9.48916
LeftToes  7.09373e-011 9.9627e-011 8.96859e-012
433
root  7.76643 39.9214 -44.3524 48.7527 -81.0593 -49.7906
RightUpLeg  -0.0918582 7.93822 -4.01881
RightLeg  24.6864 -1.04631 -0.759959
RightFoot  6.19386 -3.4398 22.471
RightToes  1.16414e-010 0 -3.6325e-017
Spine  27.0244 0.328091 -3.78046
Spine1  -1.32123 1.90943 -14.8262
HEad  -13.6241 -11.6987 -2.12726
LeftShoulder1  4.56834 -11.2591 -24.7739
LeftArm  7.06438 -18.9556 -48.3662
LeftForeArm  -37.4535 -33.0382 -9.04585
LeftHand  -0.975356 0.0248177 21.0768
RightShoulder  0.861618 2.53415 6.57
RightArm  29.937 12.9868 60.7522
RightForeArm  56.9198 48.4954 8.47397
RightHand  -0.010475 -5.12632 -1.10106
LeftUpLeg  -30.8991 -9.90962 10.2714
LeftLeg  36.2849 16.1781 12.8226
LeftFoot  -17.0931 -0.394643 -9.94196
LeftToes  7.09373e-011 9.9627e-011 8.96859e-012
434
root  8.1135 38.3971 -44.5127 20.6631 -73.717 -21.1541
RightUpLeg  1.39363 9.65127 -2.09032
RightLeg  28.639 -6.93964 -4.35796
RightFoot  -7.041 -1.02907 25.2528
RightToes  1.16414e-010 0 -3.6325e-017
Spine  29.9492 -2.80467 -2.5291
Spine1  1.71661 0.037474 -19.2731
HEad  -8.30795 -21.7743 -11.2493
LeftShoulder1  4.14525 -10.7945 -22.7346
LeftArm  6.64513 -42.5422 -53.8682
LeftForeArm  -43.8076 -32.3189 -9.03074
LeftHand  -0.921144 -0.767556 17.3948
RightShoulder  1.59703 3.96302 14.7186
RightArm  34.4424 -1.05705 57.4739
RightForeArm  55.0213 44.0014 7.18994
RightHand  0.0264528 -7.67922 -3.35204
LeftUpLeg  -33.5369 -6.78106 9.26397
LeftLeg  27.4418 16.894 9.61669
LeftFoot  -12.2823 -0.0136973 -9.9522
LeftToes  7.09373e-011 9.9627e-011 8.96859e-012
